<svg id="Capa_1" data-name="Capa 1" xmlns="http://www.w3.org/2000/svg" viewBox="0 0 846.01 342.4"><defs><style>.cls-1{font-size:288.4px;fill:#fbfcfd;stroke:gray;stroke-miterlimit:10;stroke-width:5px;font-family:Impact;}.cls-2{fill:#666;}.cls-3{font-size:57.19px;font-family:Montserrat-Regular, Montserrat;}.cls-4{letter-spacing:0.01em;}.cls-5{letter-spacing:0em;}.cls-6{letter-spacing:0em;}</style></defs><text class="cls-1" transform="matrix(0.96, 0, -0.3, 0.96, 31.51, 248.97)">SIL</text><path class="cls-2" d="M697.25,435.64l-6.68-6.46c3.27-4.22,6.27-8.32,9.53-12.2,1.62-2,2.1-3.48,0-5.31a8.16,8.16,0,0,1-1.67-2.19c-1.31-2.41-2.91-2.81-5.47-1.6-4.48,2.13-9.13,3.89-14,5.92l-4.74-7.94c3.91-3.23,7.63-6.51,11.58-9.48,2.24-1.68,2.86-3.09,1.6-5.83-3-6.5-2.8-6.53-9.84-5.73-3.76.43-7.54.66-11.53,1-.82-3-1.57-5.77-2.42-8.86,4.64-1.9,9.05-3.88,13.59-5.5,2.76-1,3.62-2.18,3.33-5.37-.4-4.36-1.51-6.71-6.37-6.64-3.37.05-6.76-.89-10.16-1.16-1.93-.16-2.93-.76-2.78-2.83.11-1.44-.33-3,.12-4.3s1.54-2.7,2.6-2.93c5-1.08,10.06-1.78,15.51-2.68.46-3.06,1.07-6.12,1.26-9.2,0-.75-1.12-1.92-2-2.34-4.73-2.28-9.54-4.38-14.74-6.73l2.34-9c5.07.71,9.88,1.19,14.6,2.13,3.4.67,4.77-.79,5.61-3.72.73-2.59,3-4.91-1-7.26-4.14-2.45-7.77-5.77-11.91-8.93l4.58-7.95c4.74,1.73,9.48,3.19,14,5.2,2.86,1.27,4.53.83,6.07-1.79a59.89,59.89,0,0,1,4-5.27c-2.8-3.94-5.36-8.07-8.46-11.76-2.38-2.84-1.92-4.74.74-6.78,1.13-.87,2.11-1.95,3.46-3.22,2.53,1.91,5,3.78,7.48,5.66s4.76,3.69,7.3,5.65l7.67-5.74c-2.35-5.68-4.72-11.41-7.2-17.38l8-4.64c3.33,4,6.76,7.95,9.94,12.08,1.55,2,2.84,2.39,5.25,1.28,6.68-3.08,6.72-2.94,5.91-10.16-.42-3.65-.74-7.31-1.15-11.41l9-2.37c1.86,4.54,3.89,8.67,5.23,13,1.18,3.84,3.32,4.85,6.93,3.93,1.39-.35,2.84-.47,4.43-.73.85-6.29,1.68-12.49,2.51-18.72h9.17c.91,5.26,2,10.38,2.59,15.56.3,2.68,1.45,3.7,3.9,3.78.26,0,.52.05.79.08,5.82.69,5.81.68,8-4.83q2.22-5.47,4.47-10.93a7.89,7.89,0,0,1,.75-1l8.56,2.11c-.55,6.46-1.08,12.81-1.61,19.12,9,4.41,9,4.42,15.14-2.91,2.1-2.52,4.18-5,6.54-7.89l8,4.68c-2,4.7-3.63,9.4-5.89,13.79-1.61,3.14-1,5,1.85,6.67a40.39,40.39,0,0,1,4,3l14.8-11.41c.55.15.87.14,1,.3,6.14,5.7,6.14,5.7,1.26,12.59L851.31,284c-5.5,7.67-5.5,7.67,1.19,15.17l18.07-6.64c1.59,2.72,3,5.18,4.68,8-4.48,3.4-8.77,6.83-13.25,10-1.9,1.35-2.07,2.52-1.21,4.57,2.53,6,2.43,6,9.05,5,4.13-.62,8.27-1.11,12.22-1.63.4.5.62.67.7.9,2.69,7.76,2.69,7.76-4.75,11.09a46.06,46.06,0,0,1-5,2.26c-4.46,1.37-6.59,3.55-5.23,8.78.74,2.87,1.35,4.3,4.46,4.59,3.9.36,7.74,1.55,11.65,1.86,3.29.26,4.33,1.63,3.95,4.72a45.75,45.75,0,0,0,0,5.26c-5.47.7-10.51,1.48-15.58,1.92-2.76.24-3.84,1.06-4.46,4.1-1,4.78.65,6.72,5,8s8.23,3.31,12.47,5.07c-.81,3-1.55,5.79-2.39,8.89-5.45-.53-10.82-.81-16.1-1.61s-4.35,3.78-6,6.16-.44,3.76,1.47,5.21c3.23,2.47,6.22,5.27,9.5,7.67,2.33,1.71,3.08,3.27,1.1,5.72a43.8,43.8,0,0,0-2.87,4.73c-4.38-1.79-8.88-3.24-13-5.41-3.7-1.94-6.22-1.86-8.14,2.14a20.79,20.79,0,0,1-2.36,3.25l11.9,15.47-6.77,6.37c-4.51-3.21-9-6.24-13.22-9.48-1.9-1.43-3.17-1.45-5.06.14-5.4,4.56-5.49,4.46-3.06,11a81.44,81.44,0,0,0,3,7.71c1.51,3,.91,4.86-2.21,6.09a46.29,46.29,0,0,0-4.45,2.37L815.1,438.42a2.75,2.75,0,0,0-.91-.05c-8,3.33-8,3.34-6.86,11.86.47,3.37,1,6.73,1.52,10.45l-8.94,2.5c-2.29-5-4.68-9.65-6.59-14.51-1.06-2.7-2.52-3.13-5.1-2.62-6.75,1.32-6.75,1.23-7.81,8.28a71.14,71.14,0,0,1-1.61,8.9,4.25,4.25,0,0,1-2.92,2.51c-6.53.65-6.55.55-7.39-6-.27-2.08-.51-4.17-.77-6.25-.8-6.19-.86-5.94-6.83-7.29-3.18-.72-4.46.29-5.57,3-1.86,4.61-4.07,9.08-6,13.41-.58.15-.86.31-1.08.26-8-1.88-8.06-1.89-7.08-9.95.42-3.51,1-7,1.52-10.84A63.47,63.47,0,0,0,735.1,439c-.79-.23-2.31.8-3,1.66-3.27,4.08-6.38,8.31-9.75,12.76l-8-4.55c1.78-4.87,3.39-9.68,5.31-14.36,1-2.41.88-3.88-1.45-5.55-5.69-4.08-5.59-4.22-11.38-.11C703.74,431,700.64,433.22,697.25,435.64Zm157.56-82.87c.13-44.46-35.8-80.71-80.44-81.16S693.21,308,693.13,353.26c-.07,43.89,36.46,80.09,80.94,80.21S854.67,397.44,854.81,352.77Z" transform="translate(-258.38 -212.77)"/><path class="cls-2" d="M774.07,281c38.79-.24,71.52,31.66,71.78,70,.28,40.9-31.32,73.44-71.47,73.6-39.11.15-71.86-31.71-72.09-70.15C702,313,733.12,281.2,774.07,281Zm-.4,91.77a20.17,20.17,0,0,0,20.59-20,20.54,20.54,0,0,0-19.9-20.43c-10.89-.28-20.48,9.06-20.66,20.12C753.53,363.25,762.7,372.56,773.67,372.73Z" transform="translate(-258.38 -212.77)"/><path class="cls-2" d="M888.24,399.8c-1.28-2.94-2.43-5.57-3.71-8.52,4.64-2.65,9-5.28,13.48-7.63,2.24-1.17,3.27-2.41,2.06-4.89a7.88,7.88,0,0,1-.7-2.66c-.29-2.73-1.62-3.71-4.45-3.57-4.95.26-9.92.1-15.19.12-.45-3.06-.86-5.88-1.34-9.15,4.85-1.49,9.54-3.1,14.33-4.33,2.71-.7,3.81-1.76,3.7-4.78-.26-7.14-.09-7.11-6.9-9.06-3.64-1-7.23-2.27-11-3.48.39-3.09.75-5.93,1.16-9.1,5,0,9.84-.13,14.65.11,2.93.14,4.18-.62,5.13-3.69,1.31-4.18,1.17-6.78-3.34-8.56-3.14-1.25-5.91-3.41-9-5-1.72-.89-2.41-1.82-1.48-3.68.64-1.29.84-2.91,1.75-3.93s2.45-1.9,3.52-1.71c5,.9,10,2.2,15.36,3.45,1.59-2.65,3.32-5.24,4.68-8,.33-.68-.3-2.21-1-2.93-3.49-3.91-7.14-7.69-11-11.85l5.6-7.41c4.41,2.6,8.68,4.88,12.68,7.55,2.87,1.92,4.7,1.1,6.59-1.29,1.67-2.11,4.68-3.38,1.91-7.07-2.89-3.85-5-8.3-7.59-12.8l7.27-5.6c3.72,3.41,7.54,6.57,10.93,10.15,2.16,2.27,3.87,2.5,6.29.67a57.43,57.43,0,0,1,5.67-3.35c-1.07-4.72-1.86-9.52-3.31-14.11-1.11-3.54,0-5.12,3.27-6,1.38-.37,2.7-1,4.43-1.64,1.61,2.73,3.19,5.4,4.74,8.09s3,5.23,4.59,8l9.29-2.37c0-6.14,0-12.35,0-18.82l9.16-1.22c1.54,5,3.21,9.93,4.57,15,.66,2.45,1.71,3.29,4.36,3.19,7.35-.29,7.34-.14,9.35-7.13,1-3.53,2.1-7,3.29-11l9.18,1.23c0,4.91.28,9.51-.14,14-.38,4,1.21,5.74,4.9,6.28,1.41.2,2.8.65,4.37,1l9.48-16.34,8.47,3.51c-1.17,5.2-2.11,10.36-3.55,15.36-.75,2.6-.08,4,2.15,5,.24.11.47.25.7.37,5.12,2.86,5.11,2.86,9.28-1.38,2.76-2.81,5.53-5.6,8.31-8.4a7.73,7.73,0,0,1,1.09-.66l7.09,5.22c-3,5.76-5.89,11.43-8.8,17.06,6.66,7.53,6.66,7.53,15.11,3.1l9-4.79,5.62,7.38c-3.62,3.59-6.94,7.3-10.71,10.49-2.7,2.29-2.89,4.23-.84,6.87a41.85,41.85,0,0,1,2.54,4.3l18-4.88c.46.35.76.47.85.67,3.49,7.62,3.49,7.62-3.65,12.12l-2,1.24c-8,5-8,5-4.7,14.47l19.24.78c.43,3.11.83,5.94,1.27,9.14-5.44,1.44-10.71,3-16.06,4.17-2.27.52-2.88,1.53-2.86,3.76,0,6.47,0,6.44,6.45,8.05,4.06,1,8.07,2.14,11.92,3.17a4.92,4.92,0,0,1,.31,1.1c-.48,8.2-.49,8.19-8.63,8.43a44.27,44.27,0,0,1-5.51.16c-4.65-.43-7.46.77-8.2,6.11-.41,2.94-.4,4.5,2.36,5.95,3.48,1.83,6.56,4.4,10.06,6.18,2.94,1.49,3.37,3.16,1.85,5.87a44.52,44.52,0,0,0-2,4.85c-5.31-1.45-10.27-2.65-15.12-4.18-2.65-.84-4-.5-5.69,2.08-2.72,4-2,6.45,1.57,9.31s6.34,6.21,9.58,9.46l-5.6,7.3c-4.84-2.57-9.68-4.89-14.27-7.64s-5.46,1.83-7.87,3.4-1.84,3.31-.64,5.38c2,3.52,3.73,7.25,5.85,10.72,1.5,2.47,1.59,4.2-1.18,5.71a42.43,42.43,0,0,0-4.45,3.27c-3.37-3.33-7-6.39-10-10-2.67-3.22-5-4.1-8.33-1.14a22.48,22.48,0,0,1-3.43,2.1c1.67,6.2,3.31,12.27,5.08,18.85l-8.69,3.29c-2.94-4.69-5.88-9.18-8.6-13.81-1.2-2.05-2.37-2.55-4.72-1.8-6.74,2.14-6.78,2-7,9a78.84,78.84,0,0,0-.18,8.27c.24,3.34-1,4.83-4.37,4.78a43.62,43.62,0,0,0-5,.49l-4.9-18.2c-.38-.18-.6-.39-.82-.39-8.69,0-8.7,0-10.87,8.34-.86,3.28-1.67,6.58-2.6,10.23l-9.22-1.11c-.21-5.47-.62-10.7-.53-15.92.05-2.91-1.13-3.86-3.71-4.38-6.75-1.36-6.71-1.44-10.39,4.67a70.89,70.89,0,0,1-4.89,7.61,4.26,4.26,0,0,1-3.65,1.2c-6.29-1.9-6.26-2-4.54-8.36.55-2,1.12-4.05,1.67-6.08,1.63-6,1.48-5.81-3.52-9.34-2.66-1.88-4.23-1.43-6.31.68-3.48,3.54-7.23,6.83-10.7,10.08-.6-.09-.92,0-1.1-.17-6.7-4.81-6.73-4.83-2.74-11.91,1.73-3.08,3.58-6.09,5.54-9.43a64.21,64.21,0,0,0-5.74-5.8c-.65-.52-2.45-.15-3.41.38-4.59,2.53-9.08,5.24-13.9,8.06L899,418.55c3.51-3.82,6.84-7.65,10.4-11.24,1.84-1.85,2.3-3.25.78-5.68-3.7-5.94-3.55-6-10.47-4.46Zm177.27-16.31a81.08,81.08,0,0,0-43.29-105.75c-41-17.44-88.89,2.55-106.28,44.37-16.85,40.53,3.06,87.95,44.11,105.07S1048.31,424.71,1065.51,383.49Z" transform="translate(-258.38 -212.77)"/><path class="cls-2" d="M1018.37,286.26c35.94,14.62,54,56.6,39.58,92.09-15.38,37.89-57,55.88-94.18,40.67-36.2-14.82-54.27-56.78-39.79-92.39C939.57,288.31,980.44,270.83,1018.37,286.26ZM982.91,370.9a20.17,20.17,0,0,0,26.66-10.57A20.53,20.53,0,0,0,999,333.85c-10-4.43-22.4.54-26.79,10.69C967.92,354.44,972.84,366.55,982.91,370.9Z" transform="translate(-258.38 -212.77)"/></svg>